<?xml version="1.0" encoding="UTF-8" standalone="no"?>
<!DOCTYPE svg PUBLIC "-//W3C//DTD SVG 1.1//EN"
 "http://www.w3.org/Graphics/SVG/1.1/DTD/svg11.dtd">
<!-- Generated by graphviz version 2.36.0 (20140111.2315)
 -->
<!-- Title: PlatformFont Pages: 1 -->
<svg width="364pt" height="140pt"
 viewBox="0.00 0.00 364.00 140.00" xmlns="http://www.w3.org/2000/svg" xmlns:xlink="http://www.w3.org/1999/xlink">
<g id="graph0" class="graph" transform="scale(1 1) rotate(0) translate(4 136)">
<title>PlatformFont</title>
<polygon fill="white" stroke="none" points="-4,4 -4,-136 360,-136 360,4 -4,4"/>
<!-- Node1 -->
<g id="node1" class="node"><title>Node1</title>
<polygon fill="#bfbfbf" stroke="black" points="120.5,-112.5 120.5,-131.5 193.5,-131.5 193.5,-112.5 120.5,-112.5"/>
<text text-anchor="middle" x="157" y="-119.5" font-family="Helvetica,sans-Serif" font-size="10.00">PlatformFont</text>
</g>
<!-- Node2 -->
<g id="node2" class="node"><title>Node2</title>
<g id="a_node2"><a xlink:href="class_core_text_font.html" target="_top" xlink:title="CoreTextFont">
<polygon fill="white" stroke="black" points="-0.5,-56.5 -0.5,-75.5 76.5,-75.5 76.5,-56.5 -0.5,-56.5"/>
<text text-anchor="middle" x="38" y="-63.5" font-family="Helvetica,sans-Serif" font-size="10.00">CoreTextFont</text>
</a>
</g>
</g>
<!-- Node1&#45;&gt;Node2 -->
<g id="edge1" class="edge"><title>Node1&#45;&gt;Node2</title>
<path fill="none" stroke="midnightblue" d="M128.863,-108.232C106.604,-98.1312 76.1442,-84.3091 56.7677,-75.5164"/>
<polygon fill="midnightblue" stroke="midnightblue" points="127.591,-111.498 138.144,-112.444 130.484,-105.124 127.591,-111.498"/>
</g>
<!-- Node3 -->
<g id="node3" class="node"><title>Node3</title>
<g id="a_node3"><a xlink:href="class_i_graphics_web_1_1_web_font.html" target="_top" xlink:title="IGraphicsWeb::WebFont">
<polygon fill="white" stroke="black" points="94.5,-56.5 94.5,-75.5 219.5,-75.5 219.5,-56.5 94.5,-56.5"/>
<text text-anchor="middle" x="157" y="-63.5" font-family="Helvetica,sans-Serif" font-size="10.00">IGraphicsWeb::WebFont</text>
</a>
</g>
</g>
<!-- Node1&#45;&gt;Node3 -->
<g id="edge2" class="edge"><title>Node1&#45;&gt;Node3</title>
<path fill="none" stroke="midnightblue" d="M157,-101.805C157,-92.9102 157,-82.7798 157,-75.7511"/>
<polygon fill="midnightblue" stroke="midnightblue" points="153.5,-102.083 157,-112.083 160.5,-102.083 153.5,-102.083"/>
</g>
<!-- Node5 -->
<g id="node5" class="node"><title>Node5</title>
<g id="a_node5"><a xlink:href="class_i_graphics_win_1_1_win_font.html" target="_top" xlink:title="IGraphicsWin::WinFont">
<polygon fill="white" stroke="black" points="237.5,-56.5 237.5,-75.5 356.5,-75.5 356.5,-56.5 237.5,-56.5"/>
<text text-anchor="middle" x="297" y="-63.5" font-family="Helvetica,sans-Serif" font-size="10.00">IGraphicsWin::WinFont</text>
</a>
</g>
</g>
<!-- Node1&#45;&gt;Node5 -->
<g id="edge4" class="edge"><title>Node1&#45;&gt;Node5</title>
<path fill="none" stroke="midnightblue" d="M188.702,-108.772C215,-98.6287 251.716,-84.4669 274.92,-75.5164"/>
<polygon fill="midnightblue" stroke="midnightblue" points="187.254,-105.579 179.183,-112.444 189.773,-112.11 187.254,-105.579"/>
</g>
<!-- Node4 -->
<g id="node4" class="node"><title>Node4</title>
<g id="a_node4"><a xlink:href="class_i_graphics_web_1_1_web_file_font.html" target="_top" xlink:title="IGraphicsWeb::WebFileFont">
<polygon fill="white" stroke="black" points="87,-0.5 87,-19.5 227,-19.5 227,-0.5 87,-0.5"/>
<text text-anchor="middle" x="157" y="-7.5" font-family="Helvetica,sans-Serif" font-size="10.00">IGraphicsWeb::WebFileFont</text>
</a>
</g>
</g>
<!-- Node3&#45;&gt;Node4 -->
<g id="edge3" class="edge"><title>Node3&#45;&gt;Node4</title>
<path fill="none" stroke="midnightblue" d="M157,-45.8045C157,-36.9102 157,-26.7798 157,-19.7511"/>
<polygon fill="midnightblue" stroke="midnightblue" points="153.5,-46.083 157,-56.083 160.5,-46.083 153.5,-46.083"/>
</g>
</g>
</svg>
